<svg width="77" height="66" viewBox="0 0 77 66" fill="none" xmlns="http://www.w3.org/2000/svg">
<path d="M18.1006 55.4355H53.9702" stroke="#1A2914" stroke-width="2" stroke-linecap="round" stroke-linejoin="round"/>
<path d="M35.1289 40.4766L50.6509 31.1317" stroke="#1A2914" stroke-width="2" stroke-linecap="round" stroke-linejoin="round"/>
<path d="M10.4912 37.8867L16.5064 43.9019" stroke="#1A2914" stroke-width="2" stroke-linecap="round" stroke-linejoin="round"/>
<path d="M1.7959 35.7148L7.8111 41.73" stroke="#1A2914" stroke-width="2" stroke-linecap="round" stroke-linejoin="round"/>
<path d="M16.5636 35.4434L26.0211 44.5155C27.2822 45.7266 28.8911 46.4883 30.6087 46.6874C32.3262 46.8865 34.0606 46.5124 35.5539 45.6206L73.5345 23.0045L68.8685 17.1449C67.6547 15.6262 65.9507 14.6023 64.0644 14.2582C62.1781 13.9141 60.2339 14.2726 58.5831 15.2688L47.4448 21.9765L32.393 16.8365L28.2538 18.6612C27.9441 18.7971 27.6729 19.0108 27.465 19.2824C27.2571 19.554 27.1193 19.8749 27.0643 20.2154C27.0094 20.556 27.0389 20.9052 27.1504 21.2309C27.2618 21.5567 27.4515 21.8484 27.7019 22.0793L35.4034 29.1725L28.3792 33.2845L21.3551 30.2005L17.1406 32.0509C16.834 32.1859 16.565 32.397 16.3581 32.6652C16.1512 32.9335 16.0129 33.2503 15.9556 33.5871C15.8983 33.9239 15.9239 34.27 16.0301 34.5941C16.1362 34.9183 16.3196 35.2101 16.5636 35.4434V35.4434Z" stroke="#1A2914" stroke-width="2" stroke-linecap="round" stroke-linejoin="round"/>
<path d="M69.7311 18.4773C63.7011 23.2134 57.7487 23.8086 53.4268 18.4773L56.8227 16.27C61.0427 13.5269 66.6623 14.4879 69.7311 18.4773Z" fill="#FFD550" stroke="#1A2914" stroke-width="2"/>
</svg>
