<svg width="26" height="27" viewBox="0 0 26 27" fill="none" xmlns="http://www.w3.org/2000/svg">
<path d="M13 1.2168C19.6274 1.2168 25 6.58938 25 13.2168C25 19.8442 19.6274 25.2168 13 25.2168C6.37258 25.2168 1 19.8442 1 13.2168C1 6.58938 6.37258 1.2168 13 1.2168Z" stroke="#1A2914" stroke-width="2" stroke-linecap="round" stroke-linejoin="round"/>
<path d="M2 17.2168H24" stroke="#1A2914" stroke-width="2" stroke-linecap="round" stroke-linejoin="round"/>
<path d="M2 9.2168H24" stroke="#1A2914" stroke-width="2" stroke-linecap="round" stroke-linejoin="round"/>
<path d="M13 1.2168C15.2091 1.2168 17 6.58938 17 13.2168C17 19.8442 15.2091 25.2168 13 25.2168C10.7909 25.2168 9 19.8442 9 13.2168C9 6.58938 10.7909 1.2168 13 1.2168Z" stroke="#1A2914" stroke-width="2" stroke-linecap="round" stroke-linejoin="round"/>
</svg>
