<svg width="33" height="20" viewBox="0 0 33 20" fill="none" xmlns="http://www.w3.org/2000/svg">
<path d="M30.927 1.16602H2.14132C1.52986 1.16602 1.03418 1.64461 1.03418 2.23498V17.2005C1.03418 17.7909 1.52986 18.2695 2.14132 18.2695H30.927C31.5385 18.2695 32.0342 17.7909 32.0342 17.2005V2.23498C32.0342 1.64461 31.5385 1.16602 30.927 1.16602Z" stroke="#1A2914" stroke-width="1.5" stroke-linecap="round" stroke-linejoin="round"/>
<path d="M16.5343 13.9925C18.6007 13.9925 20.2757 12.3175 20.2757 10.2511C20.2757 8.18484 18.6007 6.50977 16.5343 6.50977C14.468 6.50977 12.793 8.18484 12.793 10.2511C12.793 12.3175 14.468 13.9925 16.5343 13.9925Z" stroke="#1A2914" stroke-width="1.5" stroke-linecap="round" stroke-linejoin="round"/>
<path d="M23.4824 1.16602L32.0341 8.64877" stroke="#1A2914" stroke-width="1.5" stroke-linecap="round" stroke-linejoin="round"/>
<path d="M23.4824 18.2679L32.0341 10.7852" stroke="#1A2914" stroke-width="1.5" stroke-linecap="round" stroke-linejoin="round"/>
<path d="M9.5859 1.16602L1.03418 8.64877" stroke="#1A2914" stroke-width="1.5" stroke-linecap="round" stroke-linejoin="round"/>
<path d="M9.5859 18.2679L1.03418 10.7852" stroke="#1A2914" stroke-width="1.5" stroke-linecap="round" stroke-linejoin="round"/>
</svg>
