<svg width="24" height="27" viewBox="0 0 24 27" fill="none" xmlns="http://www.w3.org/2000/svg">
<path d="M23 18.7538V7.6798C22.9991 7.51984 22.9552 7.36294 22.8728 7.22491C22.7903 7.08688 22.6721 6.97261 22.5302 6.89362L12.4469 1.33416C12.311 1.25728 12.1569 1.2168 12 1.2168C11.8431 1.2168 11.689 1.25728 11.5531 1.33416L1.46979 6.89362C1.32788 6.97261 1.20973 7.08688 1.12725 7.22491C1.04477 7.36294 1.00088 7.51984 1 7.6798V18.7538C1.00088 18.9137 1.04477 19.0707 1.12725 19.2087C1.20973 19.3467 1.32788 19.461 1.46979 19.54L11.5531 25.0994C11.689 25.1763 11.8431 25.2168 12 25.2168C12.1569 25.2168 12.311 25.1763 12.4469 25.0994L22.5302 19.54C22.6721 19.461 22.7903 19.3467 22.8728 19.2087C22.9552 19.0707 22.9991 18.9137 23 18.7538V18.7538Z" stroke="#1A2914" stroke-width="2" stroke-linecap="round" stroke-linejoin="round"/>
<path d="M18 16.2168V10.3021L7 4.2168" stroke="#1A2914" stroke-width="2" stroke-linecap="round" stroke-linejoin="round"/>
<path d="M23 7.2168L12.1043 13.2168L1 7.2168" stroke="#1A2914" stroke-width="2" stroke-linecap="round" stroke-linejoin="round"/>
<path d="M12 13.2168V25.2168" stroke="#1A2914" stroke-width="2" stroke-linecap="round" stroke-linejoin="round"/>
</svg>
