<svg width="22" height="25" viewBox="0 0 22 25" fill="none" xmlns="http://www.w3.org/2000/svg">
<path d="M11 4.2168V1.2168" stroke="#1A2914" stroke-width="2" stroke-linecap="round" stroke-linejoin="round"/>
<path d="M21 15.7038C19.4792 21.0384 12.4375 22.9003 11.1875 23.1932C11.0645 23.2247 10.9355 23.2247 10.8125 23.1932C9.5625 22.9003 2.52083 21.0384 1 15.7038V12.1264C0.999986 11.9502 1.05536 11.7785 1.15824 11.6357C1.26111 11.493 1.40623 11.3865 1.57292 11.3314L10.7396 8.25612C10.9093 8.20369 11.0907 8.20369 11.2604 8.25612L20.4271 11.3314C20.5938 11.3865 20.7389 11.493 20.8418 11.6357C20.9446 11.7785 21 11.9502 21 12.1264V15.7038Z" stroke="#1A2914" stroke-width="2" stroke-linecap="round" stroke-linejoin="round"/>
<path d="M11 16.2168V8.2168" stroke="#1A2914" stroke-width="2" stroke-linecap="round" stroke-linejoin="round"/>
<path d="M4 10.2168V4.9668C4 4.76788 4.0878 4.57712 4.24408 4.43647C4.40036 4.29581 4.61232 4.2168 4.83333 4.2168H18.1667C18.3877 4.2168 18.5996 4.29581 18.7559 4.43647C18.9122 4.57712 19 4.76788 19 4.9668V10.2168" stroke="#1A2914" stroke-width="2" stroke-linecap="round" stroke-linejoin="round"/>
</svg>
