<svg width="52" height="57" viewBox="0 0 52 57" fill="none" xmlns="http://www.w3.org/2000/svg">
<path d="M25.6602 8.08095V1.91602" stroke="#1A2914" stroke-width="2" stroke-linecap="round" stroke-linejoin="round"/>
<path d="M50.3195 36.8507C46.5692 49.9512 29.2046 54.5236 26.1221 55.2428C25.8187 55.32 25.5008 55.32 25.1974 55.2428C22.1149 54.5236 4.75034 49.9512 1 36.8507V28.0657C0.999964 27.633 1.13652 27.2113 1.39021 26.8608C1.64389 26.5102 2.00176 26.2487 2.4128 26.1135L25.0176 18.5614C25.436 18.4327 25.8835 18.4327 26.3019 18.5614L48.9067 26.1135C49.3178 26.2487 49.6756 26.5102 49.9293 26.8608C50.183 27.2113 50.3195 27.633 50.3195 28.0657V36.8507Z" stroke="#1A2914" stroke-width="2" stroke-linecap="round" stroke-linejoin="round"/>
<path d="M26.1271 48.5812C23.6883 48.0197 9.94964 44.4501 6.98242 34.2227" stroke="#1A2914" stroke-width="2" stroke-linecap="round" stroke-linejoin="round"/>
<path d="M6.98242 10.8984V24.0518L25.5288 17.4708L44.0752 24.0518V10.8984C44.0752 9.24158 42.7321 7.89844 41.0752 7.89844H9.98242C8.32557 7.89844 6.98242 9.24158 6.98242 10.8984Z" fill="#FFD550" stroke="#1A2914" stroke-width="2"/>
<path d="M25.6602 38.906V18.459" stroke="#1A2914" stroke-width="2" stroke-linecap="round" stroke-linejoin="round"/>
<path d="M30.9141 37.8113L30.9141 29.4355" stroke="#1A2914" stroke-width="2" stroke-linecap="round" stroke-linejoin="round"/>
<path d="M11.7686 18.6663V12.6836" stroke="#1A2914" stroke-width="2" stroke-linecap="round" stroke-linejoin="round"/>
<path d="M48.8613 21.0599V10.291" stroke="#1A2914" stroke-width="2" stroke-linecap="round" stroke-linejoin="round"/>
</svg>
