<svg width="57" height="47" viewBox="0 0 57 47" fill="none" xmlns="http://www.w3.org/2000/svg">
<path d="M2.36719 45.6094H54.7481" stroke="#141414" stroke-width="2" stroke-linecap="round" stroke-linejoin="round"/>
<path d="M32.7479 45.6094V3.52242C32.7479 3.01505 32.5429 2.52846 32.178 2.16969C31.8131 1.81093 31.3183 1.60938 30.8023 1.60938H7.45534C6.93934 1.60938 6.44448 1.81093 6.07961 2.16969C5.71475 2.52846 5.50977 3.01505 5.50977 3.52242V45.6094" stroke="#141414" stroke-width="2" stroke-linecap="round" stroke-linejoin="round"/>
<path d="M32.748 14.1816H48.6052C50.262 14.1816 51.6052 15.5248 51.6052 17.1816V44.5626H32.748V14.1816Z" fill="#FFD550" stroke="#141414" stroke-width="2" stroke-linecap="round" stroke-linejoin="round"/>
<path d="M13.8906 11.0371H21.224" stroke="#141414" stroke-width="2" stroke-linecap="round" stroke-linejoin="round"/>
<path d="M1.31934 41.418L1.31934 26.7513" stroke="#141414" stroke-width="2" stroke-linecap="round" stroke-linejoin="round"/>
<path d="M55.7949 30.9414L55.7949 16.2747" stroke="#141414" stroke-width="2" stroke-linecap="round" stroke-linejoin="round"/>
<path d="M35.8906 9.99023L43.224 9.99023" stroke="#141414" stroke-width="2" stroke-linecap="round" stroke-linejoin="round"/>
<path d="M17.0332 26.752H24.3665" stroke="#141414" stroke-width="2" stroke-linecap="round" stroke-linejoin="round"/>
<path d="M13.8906 36.1816H21.224" stroke="#141414" stroke-width="2" stroke-linecap="round" stroke-linejoin="round"/>
<path d="M40.0811 36.1816H44.2715" stroke="#141414" stroke-width="2" stroke-linecap="round" stroke-linejoin="round"/>
<path d="M40.0811 26.752H44.2715" stroke="#141414" stroke-width="2" stroke-linecap="round" stroke-linejoin="round"/>
</svg>
