<svg width="63" height="63" viewBox="0 0 63 63" fill="none" xmlns="http://www.w3.org/2000/svg">
<path d="M42.8672 29.3959V19.4316H48.464C51.2985 19.4316 53.8533 21.1411 54.9346 23.7612L56.975 28.7052C57.1108 29.0343 56.8689 29.3959 56.5128 29.3959H42.8672Z" fill="#FFD550" stroke="#1A2914" stroke-width="2"/>
<path d="M5.22461 36.0371H42.8675" stroke="#1A2914" stroke-width="2" stroke-linecap="round" stroke-linejoin="round"/>
<path d="M46.1888 53.7525C49.8575 53.7525 52.8316 50.7784 52.8316 47.1097C52.8316 43.4409 49.8575 40.4668 46.1888 40.4668C42.52 40.4668 39.5459 43.4409 39.5459 47.1097C39.5459 50.7784 42.52 53.7525 46.1888 53.7525Z" stroke="#1A2914" stroke-width="2" stroke-linecap="round" stroke-linejoin="round"/>
<path d="M17.4026 53.7525C21.0714 53.7525 24.0455 50.7784 24.0455 47.1097C24.0455 43.4409 21.0714 40.4668 17.4026 40.4668C13.7339 40.4668 10.7598 43.4409 10.7598 47.1097C10.7598 50.7784 13.7339 53.7525 17.4026 53.7525Z" fill="#FFD550" stroke="#1A2914" stroke-width="2" stroke-linecap="round" stroke-linejoin="round"/>
<path d="M39.5459 46.002H24.0459" stroke="#1A2914" stroke-width="2" stroke-linecap="round" stroke-linejoin="round"/>
<path d="M10.705 46.002H7.10675C6.60758 46.002 6.12885 45.7978 5.77588 45.4345C5.42291 45.0711 5.22461 44.5783 5.22461 44.0645V16.9395C5.22461 16.4256 5.42291 15.9328 5.77588 15.5694C6.12885 15.2061 6.60758 15.002 7.10675 15.002H42.8675V40.9645" stroke="#1A2914" stroke-width="2" stroke-linecap="round" stroke-linejoin="round"/>
<path d="M42.8672 29.3945H58.3672V44.1564C58.3672 44.6458 58.1631 45.1152 57.7997 45.4612C57.4364 45.8073 56.9435 46.0017 56.4297 46.0017H52.6931" stroke="#1A2914" stroke-width="2" stroke-linecap="round" stroke-linejoin="round"/>
<path d="M9.65332 28.7048L9.65332 19.4316" stroke="#1A2914" stroke-width="2" stroke-linecap="round" stroke-linejoin="round"/>
<path d="M29.5813 31.6094L38.8545 31.6094" stroke="#1A2914" stroke-width="2" stroke-linecap="round" stroke-linejoin="round"/>
<path d="M29.5819 50.3242L32.9033 50.3242" stroke="#1A2914" stroke-width="2" stroke-linecap="round" stroke-linejoin="round"/>
</svg>
